Coordinates
version=1
nRows=17
nColumns=24
inDegrees=yes

Units are S.I. units (second, meters, Newtons, ...)
Angles are in degrees.

endheader
time	pelvis_tilt	pelvis_list	pelvis_rotation	pelvis_tx	pelvis_ty	pelvis_tz	hip_flexion_r	hip_adduction_r	hip_rotation_r	knee_angle_r	ankle_angle_r	subtalar_angle_r	mtp_angle_r	hip_flexion_l	hip_adduction_l	hip_rotation_l	knee_angle_l	ankle_angle_l	subtalar_angle_l	mtp_angle_l	lumbar_extension	lumbar_bending	lumbar_rotation
      4.33000000	     -2.22067103	      2.44663635	      2.92297926	     -2.57719511	      0.67054989	      0.16848271	     28.29912263	      1.24940956	      6.67743857	     -4.49459977	      7.73347705	     -6.09063315	      0.00000000	    -21.14892952	      7.43935143	     19.17889146	    -14.63415853	     11.07701508	     -4.01760032	      0.00000000	    -19.17757815	     -1.44034088	     -5.50509181
      4.34000000	     -1.91246458	      1.55201850	      2.63933402	     -2.56088233	      0.67050381	      0.16927561	     28.85981784	      2.74754154	      6.38108839	     -8.03575183	      6.99318990	     -6.53468530	      0.00000000	    -19.88301977	      6.64156150	     14.67587083	    -19.21533199	     10.10036917	      0.48203009	      0.00000000	    -19.61998107	     -0.19038243	     -5.10057067
      4.35000000	     -1.96893446	      0.68307769	      2.50611645	     -2.54489385	      0.67027194	      0.17002022	     29.90522063	      4.11644355	      5.86080377	    -11.93260470	      6.17065025	     -7.03317853	      0.00000000	    -17.78853123	      5.65945814	     10.82920799	    -24.27412942	      8.07208661	      3.87138876	      0.00000000	    -19.69794610	      0.98057008	     -4.93211498
      4.36000000	     -2.52073982	     -0.03742456	      2.29176769	     -2.52915168	      0.66955412	      0.17080163	     31.48983528	      5.30698497	      5.44830460	    -15.93738783	      5.47844076	     -7.49536214	      0.00000000	    -14.87520185	      4.79220813	      7.80262174	    -29.53789711	      4.93837943	      5.62859679	      0.00000000	    -19.17400084	      1.91144430	     -4.81302115
      4.37000000	     -2.52309770	     -0.90046753	      2.06326178	     -2.51356863	      0.66963154	      0.17159353	     32.23016549	      6.58169893	      4.91778891	    -19.53105449	      5.28916215	     -7.63522046	      0.00000000	    -12.38015112	      3.63616908	      5.25661885	    -34.74271898	      1.22863299	      6.38423424	      0.00000000	    -19.37100284	      2.98433715	     -4.54380280
      4.38000000	     -2.67163473	     -1.76356858	      1.97050626	     -2.49831766	      0.66977606	      0.17219489	     32.82002825	      7.70885403	      4.34824303	    -22.56428948	      5.53850655	     -7.60094347	      0.00000000	     -9.47350092	      2.43627464	      3.37848055	    -39.97808299	     -2.71202527	      5.98876791	      0.00000000	    -19.39022182	      4.05809480	     -4.42428899
      4.39000000	     -2.67118278	     -2.69235998	      2.04578735	     -2.48343075	      0.67037369	      0.17272054	     32.84715217	      8.76816948	      3.66180765	    -24.83109275	      6.31343230	     -7.41692616	      0.00000000	     -6.52808200	      1.11384013	      2.08088610	    -45.11182240	     -6.29664604	      4.96266709	      0.00000000	    -19.59401930	      5.16981379	     -4.38678759
      4.40000000	     -2.79257725	     -3.68333123	      2.15987304	     -2.46883700	      0.67111770	      0.17328541	     32.62410538	      9.80242778	      2.83377716	    -26.35709034	      7.47660849	     -6.99881190	      0.00000000	     -3.29779863	     -0.24579768	      1.25470906	    -50.08886732	     -9.02690570	      3.69480593	      0.00000000	    -19.58460002	      6.28552253	     -4.29359209
      4.41000000	     -2.99163836	     -4.74079792	      2.30509739	     -2.45449493	      0.67207068	      0.17384741	     32.09495673	     10.83715477	      1.93596266	    -27.13312627	      8.94187535	     -6.38244558	      0.00000000	      0.11870726	     -1.59226947	      0.88557321	    -54.83382646	    -10.51398303	      2.41416561	      0.00000000	    -19.40561288	      7.42574169	     -4.10443769
      4.42000000	     -3.24386059	     -5.81915045	      2.41521446	     -2.44027915	      0.67330913	      0.17445361	     31.24380932	     11.89172901	      1.14926547	    -27.21902552	     10.55260828	     -5.59436603	      0.00000000	      3.61340607	     -2.83897120	      0.89132298	    -59.22244676	    -10.64445816	      1.35065762	      0.00000000	    -19.06602183	      8.53313000	     -3.80892950
      4.43000000	     -3.42561137	     -6.84027954	      2.42980223	     -2.42614284	      0.67502573	      0.17512954	     29.98230931	     12.95047501	      0.57718233	    -26.72371956	     12.06906751	     -4.80241915	      0.00000000	      6.97034636	     -3.90109036	      1.12738314	    -63.11475259	     -9.57471332	      0.54582827	      0.00000000	    -18.76405935	      9.51334474	     -3.28369096
      4.44000000	     -3.53165084	     -7.71782685	      2.32312297	     -2.41197175	      0.67722495	      0.17589562	     28.34289628	     13.96161234	      0.38322118	    -25.77772308	     13.39555180	     -4.07850063	      0.00000000	     10.10668375	     -4.71949309	      1.44793214	    -66.39806055	     -7.58641932	     -0.06011276	      0.00000000	    -18.49998048	     10.27483153	     -2.64918925
      4.45000000	     -3.57172940	     -8.39779435	      2.12875491	     -2.39772645	      0.67987382	      0.17669955	     26.38309358	     14.85329048	      0.61194460	    -24.49140367	     14.44377614	     -3.52968369	      0.00000000	     13.00521851	     -5.26399964	      1.80023405	    -69.02034618	     -5.09850175	     -0.52957724	      0.00000000	    -18.27388282	     10.77993806	     -1.97335612
      4.46000000	     -3.53085713	     -8.85802789	      1.82723539	     -2.38345444	      0.68290465	      0.17751540	     24.17036075	     15.58005565	      1.22521433	    -23.02282294	     15.17691305	     -3.12692582	      0.00000000	     15.62686981	     -5.54359409	      2.08838685	    -70.96882587	     -2.47283788	     -1.01543290	      0.00000000	    -18.15410450	     11.02142561	     -1.20779527
      4.47000000	     -3.49158099	     -9.10557880	      1.57602934	     -2.36906912	      0.68609273	      0.17835551	     21.74303787	     16.12876053	      2.45908021	    -21.25397396	     15.52284619	     -3.37947883	      0.00000000	     18.10365366	     -5.56912932	      2.48319080	    -72.31557964	      0.07595779	     -1.21454139	      0.00000000	    -17.98363195	     10.99664691	     -0.62910730
      4.48000000	     -3.42198775	     -9.15116505	      1.16962418	     -2.35467338	      0.68935263	      0.17921491	     19.20791368	     16.47188160	      3.99540428	    -19.45073460	     15.62111464	     -3.74806034	      0.00000000	     20.32888321	     -5.41680336	      2.68503060	    -73.04434081	      2.35445708	     -1.56913359	      0.00000000	    -17.88427465	     10.74348688	      0.12546592
      4.49000000	     -3.29416302	     -8.96173690	      0.80755892	     -2.34026553	      0.69263405	      0.18002421	     16.46677489	     16.53841051	      6.05227799	    -17.43259090	     15.40385629	     -4.76057298	      0.00000000	     22.32531355	     -5.01668208	      2.85804777	    -73.19587752	      4.08236430	     -2.20214868	      0.00000000	    -17.86531226	     10.21257351	      0.71665196
